<svg width="30" height="41" viewBox="0 0 30 41" fill="none" xmlns="http://www.w3.org/2000/svg">
<path d="M15 2.86047C7.85625 2.86047 2.8125 8.0913 2.8125 14.5293C2.8125 17.4584 3.9975 19.434 5.48438 21.3181C5.80688 21.7281 6.135 22.1228 6.4725 22.529L6.6525 22.7426C7.04625 23.2194 7.45313 23.7113 7.83375 24.2186C8.59125 25.2312 9.30188 26.3697 9.69938 27.716C9.79673 28.076 9.75177 28.4605 9.57411 28.7873C9.39644 29.1141 9.10016 29.3573 8.74858 29.4648C8.39699 29.5724 8.01798 29.5359 7.69253 29.363C7.36708 29.1902 7.121 28.8947 7.00688 28.5398C6.74813 27.6626 6.2625 26.8426 5.595 25.952C5.24266 25.4889 4.87879 25.0348 4.50375 24.5905L4.33125 24.3807C3.99375 23.9764 3.6375 23.5493 3.29063 23.1087C1.63125 21.0073 0 18.4042 0 14.5274C0 6.41316 6.40312 0 15 0C23.5969 0 30 6.41126 30 14.5293C30 18.4042 28.3688 21.0073 26.7094 23.1107C26.3625 23.5493 26.0063 23.9764 25.6688 24.3826L25.4963 24.5905C25.1025 25.0634 24.7369 25.5077 24.405 25.952C23.7375 26.8426 23.2519 27.6645 22.9931 28.5398C22.8735 28.888 22.6263 29.1758 22.3032 29.3433C21.98 29.5108 21.6058 29.545 21.2585 29.4388C20.9111 29.3326 20.6175 29.0942 20.4387 28.7732C20.2599 28.4523 20.2098 28.0736 20.2987 27.716C20.6981 26.3697 21.4088 25.2312 22.1681 24.2186C22.5469 23.7113 22.9537 23.2194 23.3494 22.7426L23.5275 22.529C23.865 22.1228 24.1931 21.7281 24.5156 21.32C26.0025 19.4321 27.1875 17.4584 27.1875 14.5293C27.1875 8.0913 22.1437 2.86047 15 2.86047ZM8.90625 32.4186H21.0938C21.4667 32.4186 21.8244 32.5693 22.0881 32.8375C22.3518 33.1057 22.5 33.4695 22.5 33.8488C22.5 34.2282 22.3518 34.5919 22.0881 34.8602C21.8244 35.1284 21.4667 35.2791 21.0938 35.2791H8.90625C8.53329 35.2791 8.1756 35.1284 7.91188 34.8602C7.64816 34.5919 7.5 34.2282 7.5 33.8488C7.5 33.4695 7.64816 33.1057 7.91188 32.8375C8.1756 32.5693 8.53329 32.4186 8.90625 32.4186ZM10.3125 39.5698C10.3125 39.1904 10.4607 38.8267 10.7244 38.5584C10.9881 38.2902 11.3458 38.1395 11.7188 38.1395H18.2813C18.6542 38.1395 19.0119 38.2902 19.2756 38.5584C19.5393 38.8267 19.6875 39.1904 19.6875 39.5698C19.6875 39.9491 19.5393 40.3129 19.2756 40.5811C19.0119 40.8493 18.6542 41 18.2813 41H11.7188C11.3458 41 10.9881 40.8493 10.7244 40.5811C10.4607 40.3129 10.3125 39.9491 10.3125 39.5698Z" fill="black"/>
</svg>
