<svg width="140" height="117" viewBox="0 0 140 117" fill="none" xmlns="http://www.w3.org/2000/svg">
<path d="M135.333 42.0002H121.333C121.333 40.7625 120.842 39.5756 119.966 38.7004C119.091 37.8252 117.904 37.3335 116.667 37.3335H74.6667C73.429 37.3335 72.242 37.8252 71.3668 38.7004C70.4917 39.5756 70 40.7625 70 42.0002H32.6667V16.3335C32.6667 14.477 33.4042 12.6966 34.7169 11.3838C36.0297 10.071 37.8101 9.33355 39.6667 9.33355C41.3073 9.32684 42.9018 9.87628 44.19 10.8922C45.4782 11.9082 46.3841 13.3307 46.76 14.9277C47.0164 16.1304 47.737 17.1832 48.7653 17.8574C49.7937 18.5317 51.0466 18.7728 52.2517 18.5284C53.4568 18.284 54.5168 17.5738 55.2012 16.5522C55.8856 15.5306 56.1391 14.2802 55.9067 13.0727C55.1143 9.35928 53.067 6.03213 50.1092 3.65122C47.1513 1.27031 43.4636 -0.0190217 39.6667 0.000212117C35.3348 0.000212117 31.1803 1.72104 28.1173 4.78414C25.0542 7.84723 23.3333 12.0017 23.3333 16.3335V42.0002H4.66667C3.42899 42.0002 2.242 42.4919 1.36683 43.367C0.491665 44.2422 0 45.4292 0 46.6669V70.0002C0.00926465 78.6611 3.4539 86.9646 9.57808 93.0888C15.7023 99.213 24.0058 102.658 32.6667 102.667V112C32.6667 113.238 33.1583 114.425 34.0335 115.3C34.9087 116.175 36.0957 116.667 37.3333 116.667C38.571 116.667 39.758 116.175 40.6332 115.3C41.5083 114.425 42 113.238 42 112V102.667H98V112C98 113.238 98.4917 114.425 99.3668 115.3C100.242 116.175 101.429 116.667 102.667 116.667C103.904 116.667 105.091 116.175 105.966 115.3C106.842 114.425 107.333 113.238 107.333 112V102.667C115.994 102.658 124.298 99.213 130.422 93.0888C136.546 86.9646 139.991 78.6611 140 70.0002V46.6669C140 45.4292 139.508 44.2422 138.633 43.367C137.758 42.4919 136.571 42.0002 135.333 42.0002ZM112 46.6669V70.0002H79.3333V46.6669H112Z" fill="#E4E4E4"/>
</svg>
