<svg width="140" height="110" viewBox="0 0 140 110" fill="none" xmlns="http://www.w3.org/2000/svg">
<path d="M125 47.0937C121.848 45.71 118.442 44.997 115 45H25C21.5578 44.9967 18.1525 45.7086 15 47.0906C10.5444 49.0391 6.75293 52.2435 4.08904 56.312C1.42516 60.3805 0.00425765 65.137 0 70V105C0 106.326 0.526784 107.598 1.46447 108.536C2.40215 109.473 3.67392 110 5 110C6.32608 110 7.59785 109.473 8.53553 108.536C9.47322 107.598 10 106.326 10 105V102.5C10.0081 101.839 10.2741 101.208 10.7412 100.741C11.2083 100.274 11.8395 100.008 12.5 100H127.5C128.161 100.008 128.792 100.274 129.259 100.741C129.726 101.208 129.992 101.839 130 102.5V105C130 106.326 130.527 107.598 131.464 108.536C132.402 109.473 133.674 110 135 110C136.326 110 137.598 109.473 138.536 108.536C139.473 107.598 140 106.326 140 105V70C139.995 65.1375 138.574 60.3817 135.91 56.3138C133.246 52.2459 129.455 49.042 125 47.0937ZM107.5 0H32.5C27.8587 0 23.4075 1.84375 20.1256 5.12563C16.8437 8.40752 15 12.8587 15 17.5V40C15.0001 40.1937 15.0453 40.3847 15.1319 40.558C15.2185 40.7313 15.3442 40.882 15.4991 40.9984C15.6539 41.1148 15.8337 41.1935 16.0242 41.2285C16.2147 41.2635 16.4108 41.2538 16.5969 41.2C19.3264 40.4017 22.1561 39.9976 25 40H26.3219C26.6304 40.002 26.9288 39.8897 27.1595 39.6849C27.3903 39.4801 27.5372 39.1972 27.5719 38.8906C27.8446 36.4475 29.0077 34.1904 30.839 32.5504C32.6704 30.9104 35.0417 30.0025 37.5 30H55C57.4599 30.0002 59.8335 30.9071 61.6668 32.5473C63.5002 34.1875 64.6646 36.4459 64.9375 38.8906C64.9722 39.1972 65.1191 39.4801 65.3498 39.6849C65.5806 39.8897 65.879 40.002 66.1875 40H73.8313C74.1398 40.002 74.4381 39.8897 74.6689 39.6849C74.8997 39.4801 75.0465 39.1972 75.0813 38.8906C75.3538 36.4491 76.5155 34.1933 78.3449 32.5535C80.1743 30.9138 82.5433 30.0048 85 30H102.5C104.96 30.0002 107.334 30.9071 109.167 32.5473C111 34.1875 112.165 36.4459 112.437 38.8906C112.472 39.1972 112.619 39.4801 112.85 39.6849C113.081 39.8897 113.379 40.002 113.687 40H115C117.844 39.9986 120.674 40.4038 123.403 41.2031C123.589 41.257 123.786 41.2667 123.977 41.2315C124.167 41.1964 124.347 41.1173 124.502 41.0006C124.657 40.8839 124.783 40.7327 124.869 40.559C124.956 40.3854 125 40.194 125 40V17.5C125 12.8587 123.156 8.40752 119.874 5.12563C116.592 1.84375 112.141 0 107.5 0Z" fill="#E4E4E4"/>
</svg>
