<svg width="15" height="16" viewBox="0 0 15 16" fill="none" xmlns="http://www.w3.org/2000/svg">
<path d="M7.5 9.30801C8.3876 9.30801 9.10714 8.58847 9.10714 7.70087C9.10714 6.81328 8.3876 6.09373 7.5 6.09373C6.6124 6.09373 5.89286 6.81328 5.89286 7.70087C5.89286 8.58847 6.6124 9.30801 7.5 9.30801Z" fill="#B8B8B8"/>
<path d="M14.6782 9.17408L14.6625 9.16136L13.6058 8.33268C13.5389 8.27974 13.4855 8.21169 13.45 8.1341C13.4145 8.05651 13.3979 7.97161 13.4015 7.88636V7.49931C13.3982 7.41461 13.415 7.33032 13.4506 7.25337C13.4861 7.17642 13.5394 7.10901 13.6061 7.05668L14.6625 6.22766L14.6782 6.21494C14.8411 6.07923 14.9505 5.88998 14.9866 5.68106C15.0228 5.47213 14.9835 5.25715 14.8758 5.07454L13.4457 2.60022C13.4441 2.59788 13.4426 2.59542 13.4414 2.59285C13.333 2.41277 13.165 2.27633 12.9666 2.20721C12.7681 2.1381 12.5517 2.14068 12.3549 2.2145L12.3432 2.21886L11.101 2.71874C11.0226 2.75044 10.9378 2.76306 10.8535 2.75555C10.7693 2.74804 10.6881 2.72062 10.6165 2.67555C10.5067 2.60636 10.3951 2.54095 10.2817 2.47935C10.2082 2.43948 10.145 2.38289 10.0974 2.31415C10.0498 2.2454 10.019 2.16643 10.0075 2.08359L9.8203 0.758034L9.81629 0.733927C9.77554 0.528614 9.66537 0.343583 9.50427 0.20993C9.34318 0.0762772 9.141 0.0021479 8.93169 0H6.06831C5.85605 0.000679192 5.65084 0.0762442 5.48884 0.213382C5.32683 0.350521 5.21842 0.540434 5.1827 0.749663L5.17969 0.768413L4.9932 2.09665C4.98176 2.17925 4.95119 2.25804 4.90393 2.32674C4.85668 2.39545 4.79403 2.45218 4.72099 2.4924C4.60726 2.55366 4.4956 2.61865 4.38617 2.68727C4.31474 2.73206 4.2337 2.75927 4.14971 2.76667C4.06572 2.77406 3.98118 2.76142 3.90302 2.72979L2.65983 2.22756L2.64811 2.22287C2.45106 2.14897 2.23433 2.14649 2.03563 2.21586C1.83694 2.28523 1.66885 2.42207 1.56061 2.60256L1.55626 2.60993L0.124235 5.08592C0.0162985 5.26872 -0.0230963 5.48394 0.0130947 5.69311C0.0492858 5.90228 0.158703 6.09176 0.321779 6.22766L0.337515 6.24039L1.39421 7.06907C1.46113 7.122 1.51453 7.19006 1.55004 7.26765C1.58554 7.34524 1.60213 7.43014 1.59845 7.51538V7.90243C1.6018 7.98714 1.58501 8.07143 1.54944 8.14838C1.51388 8.22533 1.46056 8.29274 1.39387 8.34507L0.337515 9.17408L0.321779 9.18681C0.158864 9.32252 0.0495361 9.51176 0.0133452 9.72069C-0.0228457 9.92962 0.0164603 10.1446 0.124235 10.3272L1.55425 12.8015C1.5559 12.8039 1.55736 12.8063 1.55861 12.8089C1.66696 12.989 1.83496 13.1254 2.03344 13.1945C2.23191 13.2636 2.44833 13.2611 2.6451 13.1872L2.65682 13.1829L3.898 12.683C3.9764 12.6513 4.06121 12.6387 4.14545 12.6462C4.22968 12.6537 4.31092 12.6811 4.38248 12.7262C4.4923 12.7956 4.60391 12.861 4.7173 12.9224C4.79082 12.9623 4.85394 13.0189 4.90158 13.0876C4.94921 13.1563 4.98002 13.2353 4.99152 13.3182L5.17768 14.6437L5.1817 14.6678C5.22252 14.8735 5.33299 15.0588 5.49449 15.1924C5.65599 15.3261 5.85865 15.4001 6.06831 15.4017H8.93169C9.14394 15.4011 9.34915 15.3255 9.51116 15.1884C9.67316 15.0512 9.78157 14.8613 9.81729 14.6521L9.8203 14.6333L10.0068 13.3051C10.0184 13.2223 10.0492 13.1435 10.0968 13.0747C10.1444 13.006 10.2073 12.9494 10.2807 12.9093C10.3952 12.8477 10.507 12.7824 10.6155 12.7145C10.6869 12.6697 10.768 12.6425 10.852 12.6351C10.9359 12.6277 11.0205 12.6403 11.0986 12.672L12.3418 13.1725L12.3536 13.1772C12.5506 13.2512 12.7674 13.2538 12.9661 13.1844C13.1648 13.115 13.3329 12.9781 13.4411 12.7975C13.4424 12.795 13.4438 12.7925 13.4454 12.7901L14.8754 10.3162C14.9836 10.1334 15.0231 9.9181 14.987 9.70883C14.9508 9.49957 14.8414 9.31001 14.6782 9.17408ZM10.1755 7.82677C10.1512 8.34526 9.97666 8.8455 9.67324 9.26666C9.36983 9.68782 8.95058 10.0117 8.46649 10.199C7.98239 10.3863 7.4543 10.429 6.94644 10.3217C6.43857 10.2144 5.97281 9.96192 5.6058 9.59486C5.23878 9.2278 4.98632 8.76202 4.87912 8.25414C4.77192 7.74626 4.8146 7.21817 5.00196 6.7341C5.18932 6.25003 5.51329 5.83082 5.93449 5.52745C6.35568 5.22409 6.85594 5.04964 7.37444 5.02532C7.74668 5.00893 8.11826 5.07018 8.46554 5.20517C8.81283 5.34016 9.12823 5.54595 9.39168 5.80943C9.65514 6.07291 9.86088 6.38834 9.99583 6.73564C10.1308 7.08294 10.192 7.45453 10.1755 7.82677Z" fill="#B8B8B8"/>
<path d="M7.5 9.30801C8.3876 9.30801 9.10714 8.58847 9.10714 7.70087C9.10714 6.81328 8.3876 6.09373 7.5 6.09373C6.6124 6.09373 5.89286 6.81328 5.89286 7.70087C5.89286 8.58847 6.6124 9.30801 7.5 9.30801Z" stroke="#B8B8B8"/>
<path d="M14.6782 9.17408L14.6625 9.16136L13.6058 8.33268C13.5389 8.27974 13.4855 8.21169 13.45 8.1341C13.4145 8.05651 13.3979 7.97161 13.4015 7.88636V7.49931C13.3982 7.41461 13.415 7.33032 13.4506 7.25337C13.4861 7.17642 13.5394 7.10901 13.6061 7.05668L14.6625 6.22766L14.6782 6.21494C14.8411 6.07923 14.9505 5.88998 14.9866 5.68106C15.0228 5.47213 14.9835 5.25715 14.8758 5.07454L13.4457 2.60022C13.4441 2.59788 13.4426 2.59542 13.4414 2.59285C13.333 2.41277 13.165 2.27633 12.9666 2.20721C12.7681 2.1381 12.5517 2.14068 12.3549 2.2145L12.3432 2.21886L11.101 2.71874C11.0226 2.75044 10.9378 2.76306 10.8535 2.75555C10.7693 2.74804 10.6881 2.72062 10.6165 2.67555C10.5067 2.60636 10.3951 2.54095 10.2817 2.47935C10.2082 2.43948 10.145 2.38289 10.0974 2.31415C10.0498 2.2454 10.019 2.16643 10.0075 2.08359L9.8203 0.758034L9.81629 0.733927C9.77554 0.528614 9.66537 0.343583 9.50427 0.20993C9.34318 0.0762772 9.141 0.0021479 8.93169 0H6.06831C5.85605 0.000679192 5.65084 0.0762442 5.48884 0.213382C5.32683 0.350521 5.21842 0.540434 5.1827 0.749663L5.17969 0.768413L4.9932 2.09665C4.98176 2.17925 4.95119 2.25804 4.90393 2.32674C4.85668 2.39545 4.79403 2.45218 4.72099 2.4924C4.60726 2.55366 4.4956 2.61865 4.38617 2.68727C4.31474 2.73206 4.2337 2.75927 4.14971 2.76667C4.06572 2.77406 3.98118 2.76142 3.90302 2.72979L2.65983 2.22756L2.64811 2.22287C2.45106 2.14897 2.23433 2.14649 2.03563 2.21586C1.83694 2.28523 1.66885 2.42207 1.56061 2.60256L1.55626 2.60993L0.124235 5.08592C0.0162985 5.26872 -0.0230963 5.48394 0.0130947 5.69311C0.0492858 5.90228 0.158703 6.09176 0.321779 6.22766L0.337515 6.24039L1.39421 7.06907C1.46113 7.122 1.51453 7.19006 1.55004 7.26765C1.58554 7.34524 1.60213 7.43014 1.59845 7.51538V7.90243C1.6018 7.98714 1.58501 8.07143 1.54944 8.14838C1.51388 8.22533 1.46056 8.29274 1.39387 8.34507L0.337515 9.17408L0.321779 9.18681C0.158864 9.32252 0.0495361 9.51176 0.0133452 9.72069C-0.0228457 9.92962 0.0164603 10.1446 0.124235 10.3272L1.55425 12.8015C1.5559 12.8039 1.55736 12.8063 1.55861 12.8089C1.66696 12.989 1.83496 13.1254 2.03344 13.1945C2.23191 13.2636 2.44833 13.2611 2.6451 13.1872L2.65682 13.1829L3.898 12.683C3.9764 12.6513 4.06121 12.6387 4.14545 12.6462C4.22968 12.6537 4.31092 12.6811 4.38248 12.7262C4.4923 12.7956 4.60391 12.861 4.7173 12.9224C4.79082 12.9623 4.85394 13.0189 4.90158 13.0876C4.94921 13.1563 4.98002 13.2353 4.99152 13.3182L5.17768 14.6437L5.1817 14.6678C5.22252 14.8735 5.33299 15.0588 5.49449 15.1924C5.65599 15.3261 5.85865 15.4001 6.06831 15.4017H8.93169C9.14394 15.4011 9.34915 15.3255 9.51116 15.1884C9.67316 15.0512 9.78157 14.8613 9.81729 14.6521L9.8203 14.6333L10.0068 13.3051C10.0184 13.2223 10.0492 13.1435 10.0968 13.0747C10.1444 13.006 10.2073 12.9494 10.2807 12.9093C10.3952 12.8477 10.507 12.7824 10.6155 12.7145C10.6869 12.6697 10.768 12.6425 10.852 12.6351C10.9359 12.6277 11.0205 12.6403 11.0986 12.672L12.3418 13.1725L12.3536 13.1772C12.5506 13.2512 12.7674 13.2538 12.9661 13.1844C13.1648 13.115 13.3329 12.9781 13.4411 12.7975C13.4424 12.795 13.4438 12.7925 13.4454 12.7901L14.8754 10.3162C14.9836 10.1334 15.0231 9.9181 14.987 9.70883C14.9508 9.49957 14.8414 9.31001 14.6782 9.17408ZM10.1755 7.82677C10.1512 8.34526 9.97666 8.8455 9.67324 9.26666C9.36983 9.68782 8.95058 10.0117 8.46649 10.199C7.98239 10.3863 7.4543 10.429 6.94644 10.3217C6.43857 10.2144 5.97281 9.96192 5.6058 9.59486C5.23878 9.2278 4.98632 8.76202 4.87912 8.25414C4.77192 7.74626 4.8146 7.21817 5.00196 6.7341C5.18932 6.25003 5.51329 5.83082 5.93449 5.52745C6.35568 5.22409 6.85594 5.04964 7.37444 5.02532C7.74668 5.00893 8.11826 5.07018 8.46554 5.20517C8.81283 5.34016 9.12823 5.54595 9.39168 5.80943C9.65514 6.07291 9.86088 6.38834 9.99583 6.73564C10.1308 7.08294 10.192 7.45453 10.1755 7.82677Z" stroke="#B8B8B8"/>
</svg>
