<svg width="140" height="134" viewBox="0 0 140 134" fill="none" xmlns="http://www.w3.org/2000/svg">
<path d="M70 0.000296146L0 36.0486L3.62682 38.455L70 5.26837L136.373 38.455L140 36.0489L70 0.000296146ZM70 11.2316L6.2936 43.0848V133.589H15.1829V47.0666H124.817V133.589H133.706V43.0848L70 11.2316ZM21.4054 52.9928V58.3263H118.595V52.9928H21.4054ZM21.4054 63.6599V68.9934H118.595V63.6599H21.4054ZM51.0362 74.327C48.5176 74.327 46.7715 75.9638 45.4212 77.7642C44.0712 79.5643 42.9689 81.8239 42.0202 84.3541C40.7549 87.7287 39.786 91.5645 39.2799 95.284C36.6955 94.6218 32.7469 93.9711 32.0725 95.9575C31.375 98.0121 34.2486 99.9823 37.0113 101.355C36.9165 101.672 36.8247 101.998 36.7429 102.346C36.2116 104.604 35.9245 107.395 35.9245 110.18C35.9245 112.966 36.2116 115.757 36.7429 118.015C37.1198 119.617 37.6638 120.909 38.1486 121.736H101.851C102.336 120.909 102.88 119.617 103.257 118.015C103.788 115.757 104.076 112.966 104.076 110.18C104.076 107.395 103.788 104.604 103.257 102.346C103.178 102.013 103.088 101.683 102.989 101.355C105.751 99.9823 108.625 98.0121 107.928 95.9575C107.253 93.9711 103.305 94.6218 100.72 95.284C100.214 91.5645 99.2454 87.7287 97.9799 84.3541C97.0311 81.8239 95.9288 79.5643 94.5785 77.7642C93.2285 75.9638 91.4824 74.327 88.9638 74.327H51.0362ZM51.0362 79.6606H88.9638C88.8156 79.6606 89.4399 79.8016 90.312 80.9643C91.1843 82.1273 92.1562 84.016 92.9853 86.2268C94.0736 89.1291 94.9077 92.5787 95.364 95.8313C88.4289 93.9204 80.7205 93.8834 70 93.8834C59.2795 93.8834 51.5711 93.9204 44.636 95.8313C45.0923 92.5787 45.9264 89.1288 47.0147 86.2268C47.8438 84.016 48.8157 82.1273 49.6877 80.9643C50.5601 79.8016 51.1844 79.6606 51.0362 79.6606ZM46.2953 105.439C47.5527 105.439 48.7585 105.939 49.6476 106.828C50.5367 107.717 51.0362 108.923 51.0362 110.18C51.0362 111.438 50.5367 112.644 49.6476 113.533C48.7585 114.422 47.5527 114.921 46.2953 114.921C45.0379 114.921 43.832 114.422 42.9429 113.533C42.0538 112.644 41.5544 111.438 41.5544 110.18C41.5544 108.923 42.0538 107.717 42.9429 106.828C43.832 105.939 45.0379 105.439 46.2953 105.439ZM93.7047 105.439C94.9621 105.439 96.168 105.939 97.0571 106.828C97.9462 107.717 98.4456 108.923 98.4456 110.18C98.4456 111.438 97.9462 112.644 97.0571 113.533C96.168 114.422 94.9621 114.921 93.7047 114.921C92.4473 114.921 91.2414 114.422 90.3524 113.533C89.4633 112.644 88.9638 111.438 88.9638 110.18C88.9638 108.923 89.4633 107.717 90.3524 106.828C91.2414 105.939 92.4473 105.439 93.7047 105.439ZM39.4802 127.07V133.589H48.3695V127.07H39.4802ZM91.6305 127.07V133.589H100.52V127.07H91.6305Z" fill="#E4E4E4"/>
</svg>
