<svg width="17" height="17" viewBox="0 0 17 17" fill="none" xmlns="http://www.w3.org/2000/svg">
<path d="M12.2219 11.3028C10.15 12.5513 6.79188 12.5513 4.72188 11.3028M15.0344 5.41134L10.0347 1.52617C9.59593 1.18515 9.0559 1 8.5 1C7.9441 1 7.40407 1.18515 6.96531 1.52617L1.96469 5.41134C1.66417 5.64483 1.42103 5.94384 1.25383 6.28554C1.08664 6.62725 0.999821 7.00261 1 7.38295V14.1267C1 14.6236 1.19754 15.1 1.54917 15.4513C1.90081 15.8026 2.37772 16 2.875 16H14.125C14.6223 16 15.0992 15.8026 15.4508 15.4513C15.8025 15.1 16 14.6236 16 14.1267V7.38295C16 6.6121 15.6438 5.88434 15.0344 5.41134Z" stroke="black" stroke-width="2" stroke-linecap="round" stroke-linejoin="round"/>
</svg>
