<svg width="15" height="21" viewBox="0 0 15 21" fill="none" xmlns="http://www.w3.org/2000/svg">
<path d="M7.5 1.40625C3.92813 1.40625 1.40625 3.97781 1.40625 7.14281C1.40625 8.58281 1.99875 9.55406 2.74219 10.4803C2.90344 10.6819 3.0675 10.8759 3.23625 11.0756L3.32625 11.1806C3.52312 11.415 3.72656 11.6569 3.91688 11.9062C4.29563 12.4041 4.65094 12.9638 4.84969 13.6256C4.89836 13.8026 4.87589 13.9917 4.78705 14.1523C4.69822 14.313 4.55008 14.4325 4.37429 14.4854C4.1985 14.5383 4.00899 14.5203 3.84626 14.4353C3.68354 14.3504 3.5605 14.2051 3.50344 14.0306C3.37406 13.5994 3.13125 13.1963 2.7975 12.7584C2.62133 12.5307 2.4394 12.3075 2.25187 12.0891L2.16562 11.9859C1.99687 11.7872 1.81875 11.5772 1.64531 11.3606C0.815625 10.3275 0 9.04781 0 7.14188C0 3.15281 3.20156 0 7.5 0C11.7984 0 15 3.15188 15 7.14281C15 9.04781 14.1844 10.3275 13.3547 11.3616C13.1813 11.5772 13.0031 11.7872 12.8344 11.9869L12.7481 12.0891C12.5512 12.3216 12.3684 12.54 12.2025 12.7584C11.8688 13.1963 11.6259 13.6003 11.4966 14.0306C11.4367 14.2018 11.3131 14.3433 11.1516 14.4256C10.99 14.508 10.8029 14.5248 10.6292 14.4726C10.4556 14.4204 10.3088 14.3032 10.2194 14.1454C10.13 13.9876 10.1049 13.8014 10.1494 13.6256C10.3491 12.9638 10.7044 12.4041 11.0841 11.9062C11.2734 11.6569 11.4769 11.415 11.6747 11.1806L11.7638 11.0756C11.9325 10.8759 12.0966 10.6819 12.2578 10.4813C13.0013 9.55313 13.5938 8.58281 13.5938 7.14281C13.5937 3.97781 11.0719 1.40625 7.5 1.40625ZM4.45312 15.9375H10.5469C10.7334 15.9375 10.9122 16.0116 11.0441 16.1434C11.1759 16.2753 11.25 16.4541 11.25 16.6406C11.25 16.8271 11.1759 17.0059 11.0441 17.1378C10.9122 17.2697 10.7334 17.3438 10.5469 17.3438H4.45312C4.26664 17.3438 4.0878 17.2697 3.95594 17.1378C3.82408 17.0059 3.75 16.8271 3.75 16.6406C3.75 16.4541 3.82408 16.2753 3.95594 16.1434C4.0878 16.0116 4.26664 15.9375 4.45312 15.9375ZM5.15625 19.4531C5.15625 19.2666 5.23033 19.0878 5.36219 18.9559C5.49405 18.8241 5.67289 18.75 5.85938 18.75H9.14062C9.32711 18.75 9.50595 18.8241 9.63781 18.9559C9.76967 19.0878 9.84375 19.2666 9.84375 19.4531C9.84375 19.6396 9.76967 19.8184 9.63781 19.9503C9.50595 20.0822 9.32711 20.1562 9.14062 20.1562H5.85938C5.67289 20.1562 5.49405 20.0822 5.36219 19.9503C5.23033 19.8184 5.15625 19.6396 5.15625 19.4531Z" fill="#B8B8B8"/>
</svg>
