<svg width="140" height="107" viewBox="0 0 140 107" fill="none" xmlns="http://www.w3.org/2000/svg">
<path d="M27.4667 0C23.4053 0 20.3146 1.43846 17.7056 3.91987C15.0969 6.40158 13.052 10.0045 11.6759 14.1323C9.93704 19.3489 9.3268 25.3753 9.64167 30.7059C9.88354 30.6822 10.1259 30.6638 10.3686 30.6507C12.8438 30.531 15.1881 30.9738 17.308 31.9012C21.5481 33.7562 24.8211 37.2977 27.3674 41.4358C31.8287 48.6851 34.2162 57.9016 34.7399 65.2383C68.4408 61.0372 71.5593 61.0372 105.26 65.2383C105.784 57.9013 108.171 48.6851 112.633 41.4355C115.179 37.2977 118.452 33.7562 122.692 31.901C125.018 30.8837 127.616 30.4542 130.358 30.7059C130.673 25.3753 130.063 19.3489 128.324 14.1323C126.948 10.0042 124.903 6.40158 122.294 3.91987C119.685 1.43846 116.595 0 112.533 0H27.4667ZM11.2122 35.8882C11.0095 35.8858 10.8045 35.8899 10.5972 35.9C8.93691 35.9839 7.11182 36.4842 5.02591 37.5272C-1.8896 40.9851 -2.7568 56.9292 9.4033 60.9826L10.7339 61.4262L20.0204 93.928H119.98L129.266 61.4262L130.596 60.9826C142.757 56.9292 141.89 40.9851 134.974 37.5272C130.803 35.4416 127.672 35.526 124.823 36.7725C121.974 38.019 119.34 40.6803 117.16 44.2218C112.801 51.3059 110.466 61.7325 110.466 68.2307V71.242L107.478 70.8684C69.6701 66.1424 70.33 66.1424 32.5225 70.8684L29.5343 71.242V68.2307C29.5343 61.7325 27.1991 51.3059 22.84 44.2221C20.6602 40.6803 18.0261 38.019 15.1772 36.7728C13.9307 36.2272 12.6299 35.9044 11.2122 35.8882ZM19.1157 99.2447L12.2418 106.118C15.7845 107.075 22.2106 107.23 24.8084 105.626C25.7748 104.239 26.8473 101.333 27.8914 99.2447H19.1157ZM112.109 99.2447C112.55 101.022 114.162 104.892 115.192 105.626C119.091 107.24 124.024 107.332 127.758 106.118L120.884 99.2447H112.109Z" fill="#E4E4E4"/>
</svg>
